<mxfile host="Electron" agent="Mozilla/5.0 (Windows NT 10.0; Win64; x64) AppleWebKit/537.36 (KHTML, like Gecko) draw.io/28.2.8 Chrome/140.0.7339.240 Electron/38.4.0 Safari/537.36" version="28.2.8">
  <diagram name="Page-1" id="3r4bpIVTy0tTFAENcKrn">
    <mxGraphModel dx="983" dy="580" grid="1" gridSize="10" guides="1" tooltips="1" connect="1" arrows="1" fold="1" page="0" pageScale="1" pageWidth="850" pageHeight="1100" math="0" shadow="0">
      <root>
        <mxCell id="0" />
        <mxCell id="1" parent="0" />
        <mxCell id="JNBMvLlSeorltw1sGIW5-1" value="" style="shape=table;startSize=0;container=1;collapsible=0;childLayout=tableLayout;" vertex="1" parent="1">
          <mxGeometry x="60" y="320" width="740" height="170" as="geometry" />
        </mxCell>
        <mxCell id="JNBMvLlSeorltw1sGIW5-2" value="" style="shape=tableRow;horizontal=0;startSize=0;swimlaneHead=0;swimlaneBody=0;strokeColor=inherit;top=0;left=0;bottom=0;right=0;collapsible=0;dropTarget=0;fillColor=none;points=[[0,0.5],[1,0.5]];portConstraint=eastwest;" vertex="1" parent="JNBMvLlSeorltw1sGIW5-1">
          <mxGeometry width="740" height="57" as="geometry" />
        </mxCell>
        <mxCell id="JNBMvLlSeorltw1sGIW5-3" value="khách hàng" style="shape=partialRectangle;html=1;whiteSpace=wrap;connectable=0;strokeColor=inherit;overflow=hidden;fillColor=none;top=0;left=0;bottom=0;right=0;pointerEvents=1;" vertex="1" parent="JNBMvLlSeorltw1sGIW5-2">
          <mxGeometry width="157" height="57" as="geometry">
            <mxRectangle width="157" height="57" as="alternateBounds" />
          </mxGeometry>
        </mxCell>
        <mxCell id="JNBMvLlSeorltw1sGIW5-4" value="mua hàng" style="shape=partialRectangle;html=1;whiteSpace=wrap;connectable=0;strokeColor=inherit;overflow=hidden;fillColor=none;top=0;left=0;bottom=0;right=0;pointerEvents=1;" vertex="1" parent="JNBMvLlSeorltw1sGIW5-2">
          <mxGeometry x="157" width="583" height="57" as="geometry">
            <mxRectangle width="583" height="57" as="alternateBounds" />
          </mxGeometry>
        </mxCell>
        <mxCell id="JNBMvLlSeorltw1sGIW5-5" value="" style="shape=tableRow;horizontal=0;startSize=0;swimlaneHead=0;swimlaneBody=0;strokeColor=inherit;top=0;left=0;bottom=0;right=0;collapsible=0;dropTarget=0;fillColor=none;points=[[0,0.5],[1,0.5]];portConstraint=eastwest;" vertex="1" parent="JNBMvLlSeorltw1sGIW5-1">
          <mxGeometry y="57" width="740" height="56" as="geometry" />
        </mxCell>
        <mxCell id="JNBMvLlSeorltw1sGIW5-6" value="website" style="shape=partialRectangle;html=1;whiteSpace=wrap;connectable=0;strokeColor=inherit;overflow=hidden;fillColor=none;top=0;left=0;bottom=0;right=0;pointerEvents=1;" vertex="1" parent="JNBMvLlSeorltw1sGIW5-5">
          <mxGeometry width="157" height="56" as="geometry">
            <mxRectangle width="157" height="56" as="alternateBounds" />
          </mxGeometry>
        </mxCell>
        <mxCell id="JNBMvLlSeorltw1sGIW5-7" value="tạo giỏ hàng, hiển thị cho người dùng chọn hàng hoá&amp;nbsp;" style="shape=partialRectangle;html=1;whiteSpace=wrap;connectable=0;strokeColor=inherit;overflow=hidden;fillColor=none;top=0;left=0;bottom=0;right=0;pointerEvents=1;" vertex="1" parent="JNBMvLlSeorltw1sGIW5-5">
          <mxGeometry x="157" width="583" height="56" as="geometry">
            <mxRectangle width="583" height="56" as="alternateBounds" />
          </mxGeometry>
        </mxCell>
        <mxCell id="JNBMvLlSeorltw1sGIW5-8" value="" style="shape=tableRow;horizontal=0;startSize=0;swimlaneHead=0;swimlaneBody=0;strokeColor=inherit;top=0;left=0;bottom=0;right=0;collapsible=0;dropTarget=0;fillColor=none;points=[[0,0.5],[1,0.5]];portConstraint=eastwest;" vertex="1" parent="JNBMvLlSeorltw1sGIW5-1">
          <mxGeometry y="113" width="740" height="57" as="geometry" />
        </mxCell>
        <mxCell id="JNBMvLlSeorltw1sGIW5-9" value="hệ thống thanh toán" style="shape=partialRectangle;html=1;whiteSpace=wrap;connectable=0;strokeColor=inherit;overflow=hidden;fillColor=none;top=0;left=0;bottom=0;right=0;pointerEvents=1;" vertex="1" parent="JNBMvLlSeorltw1sGIW5-8">
          <mxGeometry width="157" height="57" as="geometry">
            <mxRectangle width="157" height="57" as="alternateBounds" />
          </mxGeometry>
        </mxCell>
        <mxCell id="JNBMvLlSeorltw1sGIW5-10" value="kiểm tra hàng hoá, tính hoá đơn" style="shape=partialRectangle;html=1;whiteSpace=wrap;connectable=0;strokeColor=inherit;overflow=hidden;fillColor=none;top=0;left=0;bottom=0;right=0;pointerEvents=1;" vertex="1" parent="JNBMvLlSeorltw1sGIW5-8">
          <mxGeometry x="157" width="583" height="57" as="geometry">
            <mxRectangle width="583" height="57" as="alternateBounds" />
          </mxGeometry>
        </mxCell>
        <mxCell id="JNBMvLlSeorltw1sGIW5-11" value="&lt;font style=&quot;font-size: 36px;&quot;&gt;vai trò&lt;/font&gt;" style="text;html=1;whiteSpace=wrap;strokeColor=none;fillColor=none;align=center;verticalAlign=middle;rounded=0;" vertex="1" parent="1">
          <mxGeometry x="380" y="280" width="110" height="30" as="geometry" />
        </mxCell>
      </root>
    </mxGraphModel>
  </diagram>
</mxfile>
